<svg width="13" height="13" viewBox="0 0 13 13" fill="none" xmlns="http://www.w3.org/2000/svg">
<path d="M6.93586 1.14049L5.66919 3.39256C6.05067 3.63383 6.41472 3.9016 6.75866 4.19389C6.79201 4.22225 6.81944 4.25691 6.83939 4.29588C6.85935 4.33485 6.87143 4.37736 6.87495 4.421C6.87847 4.46464 6.87337 4.50854 6.85992 4.5502C6.84648 4.59187 6.82496 4.63048 6.79659 4.66382C6.76823 4.69717 6.73357 4.7246 6.6946 4.74456C6.65564 4.76451 6.61312 4.77659 6.56948 4.78012C6.52585 4.78364 6.48194 4.77853 6.44028 4.76509C6.39861 4.75164 6.36001 4.73012 6.32666 4.70176C6.01478 4.43773 5.6855 4.19496 5.34106 3.97509L1.35439 11.0618H9.48106C9.46519 10.7702 9.44053 10.4796 9.39699 10.194C9.38893 10.15 9.38977 10.105 9.39946 10.0614C9.40915 10.0178 9.42749 9.97662 9.45341 9.94026C9.47932 9.90391 9.51227 9.87313 9.5503 9.84976C9.58834 9.82638 9.63068 9.81088 9.67482 9.80418C9.71896 9.79748 9.76399 9.79972 9.80725 9.81075C9.85051 9.82179 9.89111 9.84141 9.92664 9.86843C9.96217 9.89546 9.99191 9.92935 10.0141 9.96809C10.0363 10.0068 10.0505 10.0496 10.0558 10.094C10.1027 10.4149 10.1335 10.738 10.148 11.062H12.5C12.6326 11.062 12.7598 11.1147 12.8535 11.2085C12.9473 11.3022 13 11.4294 13 11.562C13 11.6946 12.9473 11.8218 12.8535 11.9156C12.7598 12.0093 12.6326 12.062 12.5 12.062H0.499992C0.412647 12.0621 0.326813 12.0392 0.251036 11.9958C0.175258 11.9524 0.112182 11.8898 0.0680871 11.8144C0.0239924 11.739 0.000417963 11.6534 -0.000288802 11.5661C-0.000995567 11.4787 0.02119 11.3927 0.0640588 11.3166L6.06406 0.649956C6.12915 0.534348 6.2375 0.449333 6.36528 0.413614C6.49305 0.377894 6.62978 0.394396 6.74539 0.459489C6.861 0.524582 6.94602 0.632934 6.98173 0.760709C7.01745 0.888483 7.00095 1.02488 6.93586 1.14049ZM9.11259 8.94176C9.12533 8.98365 9.1462 9.02262 9.17399 9.05645C9.20179 9.09028 9.23599 9.1183 9.27462 9.13891C9.31324 9.15953 9.35556 9.17233 9.39913 9.17659C9.44271 9.18086 9.4867 9.17649 9.52859 9.16376C9.57048 9.15102 9.60946 9.13015 9.64329 9.10235C9.67711 9.07455 9.70513 9.04036 9.72575 9.00173C9.74636 8.9631 9.75917 8.92079 9.76343 8.87722C9.76769 8.83364 9.76333 8.78965 9.75059 8.74776C9.61649 8.30726 9.45104 7.87691 9.25553 7.46002C9.23779 7.41912 9.21204 7.38219 9.17978 7.35142C9.14752 7.32065 9.10942 7.29666 9.06773 7.28088C9.02604 7.26509 8.9816 7.25783 8.93705 7.25952C8.8925 7.26121 8.84875 7.27182 8.80837 7.29072C8.768 7.30962 8.73183 7.33643 8.70199 7.36956C8.67216 7.40269 8.64928 7.44146 8.6347 7.48359C8.62012 7.52572 8.61414 7.57035 8.61711 7.61483C8.62008 7.65931 8.63194 7.70274 8.65199 7.74256C8.83391 8.1308 8.98783 8.53156 9.11259 8.94176ZM7.74313 5.15922C7.68392 5.09552 7.60216 5.05748 7.5153 5.05322C7.42844 5.04896 7.34336 5.07881 7.2782 5.13641C7.21304 5.19401 7.17297 5.27479 7.16655 5.36152C7.16012 5.44824 7.18784 5.53405 7.24379 5.60062C7.52777 5.92215 7.78862 6.26338 8.02439 6.62176C8.04842 6.65835 8.07942 6.68985 8.11562 6.71446C8.15182 6.73907 8.19252 6.75631 8.23538 6.76519C8.27824 6.77407 8.32244 6.77443 8.36544 6.76623C8.40844 6.75804 8.4494 6.74145 8.48599 6.71742C8.52258 6.6934 8.55408 6.6624 8.57869 6.62619C8.6033 6.58999 8.62054 6.5493 8.62943 6.50644C8.63831 6.46357 8.63866 6.41938 8.63047 6.37638C8.62227 6.33338 8.60569 6.29241 8.58166 6.25582C8.32852 5.8709 8.0483 5.50435 7.74313 5.15922Z" fill="white" fill-opacity="0.38"/>
</svg>
