<svg width="16" height="17" viewBox="0 0 16 17" fill="none" xmlns="http://www.w3.org/2000/svg">
<path d="M2.4 5.02842C1.07452 5.02842 0 3.9539 0 2.62842C0 1.30294 1.07452 0.228424 2.4 0.228424C3.72548 0.228424 4.8 1.30294 4.8 2.62842C4.8 3.9539 3.72548 5.02842 2.4 5.02842ZM13.6 5.02842C12.2745 5.02842 11.2 3.9539 11.2 2.62842C11.2 1.30294 12.2745 0.228424 13.6 0.228424C14.9255 0.228424 16 1.30294 16 2.62842C16 3.9539 14.9255 5.02842 13.6 5.02842ZM13.6 16.2284C12.2745 16.2284 11.2 15.1539 11.2 13.8284C11.2 12.5029 12.2745 11.4284 13.6 11.4284C14.9255 11.4284 16 12.5029 16 13.8284C16 15.1539 14.9255 16.2284 13.6 16.2284ZM2.4 16.2284C1.07452 16.2284 0 15.1539 0 13.8284C0 12.5029 1.07452 11.4284 2.4 11.4284C3.72548 11.4284 4.8 12.5029 4.8 13.8284C4.8 15.1539 3.72548 16.2284 2.4 16.2284ZM5.6 1.82842H10.4V3.42842H5.6V1.82842ZM5.6 13.0284H10.4V14.6284H5.6V13.0284ZM1.6 5.82842H3.2V10.6284H1.6V5.82842ZM12.8 5.82842H14.4V10.6284H12.8V5.82842Z" fill="white" fill-opacity="0.38"/>
</svg>
