<svg width="15" height="13" viewBox="0 0 15 13" fill="none" xmlns="http://www.w3.org/2000/svg">
<path d="M3.00002 4.89509C1.71135 4.89509 0.666687 3.85042 0.666687 2.56176C0.666687 1.27309 1.71135 0.228424 3.00002 0.228424C4.28869 0.228424 5.33335 1.27309 5.33335 2.56176C5.33335 3.85042 4.28869 4.89509 3.00002 4.89509ZM3.00002 3.56176C3.55231 3.56176 4.00002 3.11404 4.00002 2.56176C4.00002 2.00947 3.55231 1.56176 3.00002 1.56176C2.44773 1.56176 2.00002 2.00947 2.00002 2.56176C2.00002 3.11404 2.44773 3.56176 3.00002 3.56176ZM14.6667 4.89509H13.3334C13.3334 3.42233 12.1394 2.22842 10.6667 2.22842C9.19395 2.22842 8.00002 3.42233 8.00002 4.89509V8.22842C8.00002 9.70116 9.19395 10.8951 10.6667 10.8951C12.1394 10.8951 13.3334 9.70116 13.3334 8.22842H14.6667C14.6667 10.4376 12.8758 12.2284 10.6667 12.2284C8.45755 12.2284 6.66669 10.4376 6.66669 8.22842V4.89509C6.66669 2.68595 8.45755 0.895091 10.6667 0.895091C12.8758 0.895091 14.6667 2.68595 14.6667 4.89509Z" fill="white" fill-opacity="0.38"/>
</svg>
