<svg width="17" height="17" viewBox="0 0 17 17" fill="none" xmlns="http://www.w3.org/2000/svg">
<path d="M16.321 4.05934C15.4382 5.41123 14.2251 7.64965 13.3939 10.6805C12.227 11.9074 11.4437 13.1465 10.9311 14.1673C10.9885 13.0061 11.0885 11.4871 11.2618 9.8337C11.651 9.07092 13.2676 6.17685 16.321 4.05934ZM12.6507 0C10.3306 5.18118 10.1026 14.7905 10.0806 16.2284H6.34477C7.28627 7.16764 10.5362 2.27737 12.6507 0ZM4.80492 2.65389C5.80117 3.56759 7.14832 5.19214 7.44749 7.4476C7.15004 8.28949 6.87285 9.19995 6.62067 10.1769C6.39348 9.39348 6.06758 8.43636 5.63347 7.54781C5.63735 7.05809 5.60243 4.94748 4.80492 2.65389ZM2.04509 6.77205C1.38768 6.40365 0.629821 6.37687 0 6.45761C0.691036 5.86849 1.75108 5.25787 2.94693 5.6072C4.70318 6.11923 5.90118 10.2029 6.23614 11.8222C5.9542 13.17 5.72486 14.6367 5.56277 16.2284H3.87377C3.83669 15.3865 3.72116 13.0426 3.45389 9.4515C3.35646 8.14302 2.88226 7.24189 2.04509 6.77205ZM13.4017 16.228H10.9234C11.3234 14.9808 12.8055 11.311 17 8.74269C15.6438 10.3056 13.9134 12.8811 13.4017 16.228Z" fill="white" fill-opacity="0.38"/>
</svg>
