<svg width="12" height="14" viewBox="0 0 12 14" fill="none" xmlns="http://www.w3.org/2000/svg">
<path d="M1.8667 13.1142C1.8667 13.1142 2.20003 10.1142 4.53336 7.44755M9.95336 1.94221L10.3494 6.05888C10.5987 8.64955 8.65603 10.9562 6.06603 11.2055C3.52403 11.4502 1.22136 9.59221 0.976696 7.05021C0.859125 5.82951 1.23129 4.6121 2.01131 3.6658C2.79134 2.71949 3.91533 2.1218 5.13603 2.00421L9.5167 1.58288C9.56901 1.57782 9.62181 1.58312 9.67207 1.59848C9.72233 1.61384 9.76908 1.63895 9.80963 1.67239C9.85019 1.70582 9.88375 1.74692 9.90842 1.79333C9.93308 1.83974 9.94835 1.8899 9.95336 1.94221Z" stroke="white" stroke-opacity="0.38" stroke-width="1.5" stroke-linecap="round" stroke-linejoin="round"/>
</svg>
