<svg width="15" height="16" viewBox="0 0 15 16" fill="none" xmlns="http://www.w3.org/2000/svg">
<path d="M9.5 3.56176H11.5M11.5 3.56176H13.5M11.5 3.56176V1.56176M11.5 3.56176V5.56176M6.83333 4.89509V1.96176C6.83333 1.85567 6.79119 1.75393 6.71618 1.67892C6.64116 1.6039 6.53942 1.56176 6.43333 1.56176H1.9C1.79391 1.56176 1.69217 1.6039 1.61716 1.67892C1.54214 1.75393 1.5 1.85567 1.5 1.96176V14.4951C1.5 14.6012 1.54214 14.7029 1.61716 14.7779C1.69217 14.853 1.79391 14.8951 1.9 14.8951H6.43333C6.53942 14.8951 6.64116 14.853 6.71618 14.7779C6.79119 14.7029 6.83333 14.6012 6.83333 14.4951V11.5618M6.83333 4.89509H4.83333M6.83333 4.89509V8.22843M6.83333 11.5618V8.22843M6.83333 11.5618H4.83333M6.83333 8.22843H4.83333" stroke="white" stroke-opacity="0.38" stroke-width="1.5" stroke-linecap="round" stroke-linejoin="round"/>
</svg>
