<svg width="16" height="14" viewBox="0 0 16 14" fill="none" xmlns="http://www.w3.org/2000/svg">
<path d="M1.33331 7.22842H2.66665M13.3333 7.22842H14.6666M1.99998 12.5684L2.00665 12.5611M3.99998 9.90176L4.00665 9.89442M5.99998 12.5684L6.00665 12.5611M9.99998 12.5684L10.0066 12.5611M12 9.90176L12.0066 9.89442M14 12.5684L14.0066 12.5611M8.26398 1.49242L10.3333 3.56176C10.7949 4.02326 11.1092 4.61126 11.2365 5.25141C11.3639 5.89155 11.2986 6.55509 11.0488 7.15811C10.7991 7.76112 10.3761 8.27653 9.8334 8.63916C9.29071 9.00178 8.65267 9.19533 7.99998 9.19533C7.34729 9.19533 6.70925 9.00178 6.16656 8.63916C5.62387 8.27653 5.2009 7.76112 4.95114 7.15811C4.70139 6.55509 4.63605 5.89155 4.76341 5.25141C4.89077 4.61126 5.2051 4.02326 5.66665 3.56176L7.73598 1.49242C7.77065 1.45775 7.8118 1.43025 7.8571 1.41149C7.9024 1.39272 7.95095 1.38306 7.99998 1.38306C8.04901 1.38306 8.09756 1.39272 8.14286 1.41149C8.18815 1.43025 8.22931 1.45775 8.26398 1.49242Z" stroke="white" stroke-opacity="0.38" stroke-width="1.5" stroke-linecap="round" stroke-linejoin="round"/>
</svg>
